<?xml version="1.0" standalone="no"?>
<!DOCTYPE svg PUBLIC "-//W3C//DTD SVG 20010904//EN"
 "http://www.w3.org/TR/2001/REC-SVG-20010904/DTD/svg10.dtd">
<svg version="1.0" xmlns="http://www.w3.org/2000/svg"
 width="460.000000pt" height="460.000000pt" viewBox="0 0 460.000000 460.000000"
 preserveAspectRatio="xMidYMid meet">
<metadata>
Created by potrace 1.14, written by Peter Selinger 2001-2017
</metadata>
<g transform="translate(0.000000,460.000000) scale(0.100000,-0.100000)"
fill="#000000" stroke="none">
<path d="M0 2300 l0 -2300 2300 0 2300 0 0 2300 0 2300 -2300 0 -2300 0 0
-2300z m3012 2060 c106 -28 314 -111 403 -162 150 -87 298 -230 416 -403 207
-303 254 -445 230 -707 -14 -152 -29 -210 -93 -371 -141 -357 -390 -630 -721
-794 -78 -39 -171 -81 -207 -94 -36 -12 -69 -26 -74 -30 -14 -12 32 -58 74
-76 53 -22 268 -37 338 -23 209 42 478 126 664 206 85 37 208 60 208 40 0 -15
-132 -99 -217 -140 -211 -102 -456 -194 -588 -222 -83 -18 -175 -12 -285 18
-84 23 -138 51 -222 116 l-58 45 -47 -21 c-52 -22 -171 -52 -208 -52 -33 0
-146 -53 -172 -81 -28 -31 -54 -137 -93 -374 -39 -231 -96 -420 -178 -583
l-27 -54 -39 7 c-22 3 -56 15 -77 27 -65 36 -96 144 -130 443 -6 55 -13 102
-15 104 -2 3 -66 -56 -142 -130 -372 -364 -710 -604 -1118 -793 -129 -60 -214
-82 -278 -72 -43 7 -176 98 -176 121 0 19 115 107 249 190 64 40 175 114 246
166 72 52 180 129 240 171 112 78 449 358 655 546 105 96 320 302 320 307 0 1
-33 5 -72 9 -89 8 -231 44 -318 81 -144 61 -369 181 -510 272 -133 85 -163
110 -259 212 -199 214 -243 290 -272 470 -24 154 12 445 71 575 39 87 83 132
212 219 129 88 255 142 469 202 133 37 135 38 319 37 l185 0 135 -42 c119 -37
312 -128 394 -185 11 -8 23 -15 27 -15 4 0 10 51 14 113 11 180 30 283 75 401
47 126 72 177 94 195 11 9 16 31 16 70 l0 57 65 -7 c56 -7 70 -6 98 11 47 29
265 29 379 0z"/>
<path d="M2869 4241 c-57 -11 -111 -38 -177 -90 -62 -49 -68 -67 -82 -251 -6
-74 -20 -239 -31 -367 l-21 -231 41 -41 c65 -65 141 -231 156 -341 14 -105 6
-95 140 -160 161 -77 216 -130 266 -251 45 -111 44 -152 -10 -293 -22 -60 -41
-111 -41 -113 0 -11 76 38 154 100 159 126 322 334 414 527 105 220 142 363
143 555 0 127 -7 167 -55 293 -65 170 -110 246 -219 376 -200 237 -285 285
-507 292 -69 1 -146 -1 -171 -5z"/>
<path d="M1480 3620 c-190 -34 -420 -120 -561 -211 -93 -60 -193 -165 -224
-234 -93 -211 -64 -528 68 -731 167 -258 380 -431 701 -571 91 -39 110 -44
249 -58 221 -22 207 -24 207 33 0 27 9 99 20 161 23 124 61 212 183 414 76
126 66 69 108 612 l31 400 -43 37 c-81 70 -226 126 -393 153 -117 19 -215 17
-346 -5z"/>
<path d="M2536 2894 c-3 -16 -8 -56 -11 -89 l-6 -60 20 24 c16 17 21 37 21 75
0 62 -15 93 -24 50z"/>
<path d="M2837 2460 c-15 -17 -27 -35 -27 -38 0 -7 103 -72 114 -72 3 0 6 16
6 35 0 26 -9 45 -33 71 l-33 36 -27 -32z"/>
<path d="M2708 2266 c-24 -29 -50 -72 -57 -94 -13 -39 -13 -42 10 -61 13 -11
27 -20 31 -21 14 0 175 166 180 188 8 29 -16 42 -75 42 -42 0 -47 -3 -89 -54z"/>
<path d="M2561 2028 c-10 -24 -17 -44 -16 -46 2 -2 19 7 39 20 39 25 46 60 13
66 -12 3 -22 -9 -36 -40z"/>
<path d="M2156 1459 l-54 -54 -4 -255 c-2 -152 1 -257 6 -260 9 -5 119 610
111 618 -2 3 -29 -20 -59 -49z"/>
<path d="M1679 1279 c-333 -314 -644 -568 -912 -748 -125 -83 -227 -154 -227
-157 0 -3 15 3 33 14 17 11 124 73 237 138 254 146 449 294 828 626 251 220
272 241 272 271 0 71 -9 65 -231 -144z"/>
</g>
</svg>
